<svg xmlns="http://www.w3.org/2000/svg" viewBox="0 0 168 168" width="32" height="32">
  <path fill="white" d="M84 0C37.7 0 0 37.7 0 84s37.7 84 84 84 84-37.7 84-84S130.3 0 84 0zm38.5 121.3c-1.5 2.4-4.6 3.2-7 1.7-19.1-11.7-43.1-14.3-71.4-7.7-2.7.6-5.5-1.1-6.1-3.8-.6-2.7 1.1-5.5 3.8-6.1 31.4-7.3 58.9-4.3 80.6 9 2.4 1.4 3.2 4.5 1.7 6.9zm10.1-21.4c-1.9 3-5.9 3.9-8.9 2-21.9-13.4-55.2-17.3-81-9.3-3.3 1-6.8-.8-7.8-4.1-1-3.3.8-6.8 4.1-7.8 30.8-9.2 68.5-5 93.7 10.6 3 1.9 3.9 5.9 2 8.6zm1.1-22.6c-26.2-15.6-69.5-17-94.3-9.1-4 .9-8.1-1.2-9.3-5.1-1.2-4 1.2-8.1 5.1-9.3 29.6-9 77.2-7.5 107.4 11.1 3.6 2.1 4.8 6.8 2.7 10.3-2.1 3.6-6.7 4.7-10.3 2.1z"/>
</svg>
